<?xml version="1.0" standalone="no"?><!DOCTYPE svg PUBLIC "-//W3C//DTD SVG 1.1//EN" "http://www.w3.org/Graphics/SVG/1.1/DTD/svg11.dtd"><svg t="1697550211846" class="icon" viewBox="0 0 1083 1024" version="1.1" xmlns="http://www.w3.org/2000/svg" p-id="2302" id="mx_n_1697550211847" xmlns:xlink="http://www.w3.org/1999/xlink" width="211.5234375" height="200"><path d="M307.515636 765.015914a371.014493 371.014493 0 1 0 516.359564-532.897566 371.014493 371.014493 0 1 0-516.359564 532.897566Z" fill="#E9EAEB" p-id="2303"></path><path d="M212.22029 206.284058l598.075362 599.55942 105.368116-105.368116L317.588406 100.915942z" fill="#A3D4FF" p-id="2304"></path><path d="M473.904232 468.813913L683.77971 678.65971l-62.96858 62.96858L410.935652 531.767652z" fill="#FFFFFF" p-id="2305"></path><path d="M810.295652 820.684058c-4.452174 0-7.42029-1.484058-10.388406-4.452174l-608.463768-611.431884c-1.484058-1.484058-2.968116-4.452174-4.452174-7.42029l-31.165217-135.049275c-1.484058-4.452174 0-10.388406 4.452174-13.356522 2.968116-2.968116 8.904348-4.452174 13.356522-4.452174l135.049275 31.165218c2.968116 0 5.936232 1.484058 7.42029 4.452173l138.017391 138.017392-20.776811 19.292753-133.565218-133.565217-108.336232-23.744928 23.744928 108.336232 595.107246 596.591305 84.591305-84.591305-231.513044-231.513043 20.776812-20.776812 241.901449 241.90145c5.936232 5.936232 5.936232 14.84058 0 20.776811L820.684058 816.231884c-2.968116 2.968116-5.936232 4.452174-10.388406 4.452174z" fill="#2A5082" p-id="2306"></path><path d="M265.557333 174.614261l21.014261-20.969739 586.989449 588.325101-21.01426 20.954899z" fill="#2A5082" p-id="2307"></path><path d="M915.663768 700.475362l-105.368116 105.368116 41.553623 41.553623c11.872464 11.872464 31.165217 11.872464 41.553624 0l62.330434-62.330434c11.872464-11.872464 11.872464-29.681159 0-41.553624l-40.069565-43.037681z" fill="#FFFFFF" p-id="2308"></path><path d="M874.110145 871.142029c-11.872464 0-22.26087-4.452174-31.165217-13.356522L799.907246 816.231884c-5.936232-5.936232-5.936232-14.84058 0-20.776812l105.368116-105.368115c2.968116-2.968116 5.936232-4.452174 10.388406-4.452174 4.452174 0 7.42029 1.484058 10.388406 4.452174l41.553623 41.553623c8.904348 8.904348 13.356522 19.292754 13.356522 31.165217s-4.452174 23.744928-13.356522 31.165217L905.275362 857.785507c-8.904348 8.904348-20.776812 13.356522-31.165217 13.356522zM831.072464 805.843478l31.165217 31.165218c5.936232 5.936232 14.84058 5.936232 20.776812 0l62.330435-62.330435c2.968116-2.968116 4.452174-5.936232 4.452173-10.388406s-1.484058-7.42029-4.452173-10.388406l-31.165218-31.165217-83.107246 83.107246zM200.19942 196.652522l104.922899-104.922899 20.98458 20.98458-104.922899 104.922898z" fill="#2A5082" p-id="2309"></path><path d="M595.107246 317.588406l-84.591304 84.591304-72.718841-72.71884 84.591305-84.591305c11.872464-11.872464 29.681159-11.872464 41.553623 0l31.165217 31.165218c11.872464 11.872464 11.872464 31.165217 0 41.553623z" fill="#FFFFFF" p-id="2310"></path><path d="M512 422.956522l-94.97971-94.97971 94.97971-94.979711c16.324638-16.324638 46.005797-16.324638 62.330435 0l31.165217 31.165218c17.808696 17.808696 17.808696 46.005797 0 62.330435l-93.495652 96.463768z m-53.426087-93.495652l51.942029 51.942029 72.718841-72.718841c5.936232-5.936232 5.936232-14.84058 0-20.776812l-31.165218-31.165217c-5.936232-5.936232-14.84058-5.936232-20.776811 0l-72.718841 72.718841z" fill="#2A5082" p-id="2311"></path><path d="M690.086957 329.46087L658.921739 296.811594c-11.872464-11.872464-29.681159-11.872464-41.553623 0l-105.368116 105.368116 72.718841 72.718841 105.368116-105.368116c11.872464-10.388406 11.872464-29.681159 0-40.069565z" fill="#FFFFFF" p-id="2312"></path><path d="M584.718841 497.15942L489.73913 402.17971l115.756522-115.756522c17.808696-17.808696 46.005797-17.808696 62.330435 0l31.165217 31.165218c8.904348 8.904348 13.356522 19.292754 13.356522 31.165217s-4.452174 23.744928-13.356522 31.165218l-114.272463 117.240579z m-51.942029-94.97971l51.942029 51.942029 94.97971-94.97971c2.968116-2.968116 4.452174-5.936232 4.452174-10.388406s-1.484058-7.42029-4.452174-8.904348l-31.165218-31.165217c-5.936232-5.936232-14.84058-5.936232-20.776811 0l-94.97971 93.495652z" fill="#2A5082" p-id="2313"></path><path d="M749.449275 458.573913L673.762319 534.26087c-13.356522 13.356522-34.133333 16.324638-46.005797 4.452173l-31.165218-31.165217c-11.872464-11.872464-10.388406-32.649275 4.452174-46.005797l75.686957-75.686957c13.356522-13.356522 34.133333-16.324638 46.005797-4.452173l31.165217 31.165217c10.388406 11.872464 8.904348 32.649275-4.452174 46.005797z" fill="#FFFFFF" p-id="2314"></path><path d="M645.565217 560.973913c-10.388406 0-22.26087-4.452174-29.681159-11.872464l-31.165217-31.165217c-17.808696-17.808696-14.84058-47.489855 4.452173-66.782609l75.686957-75.686956c10.388406-10.388406 23.744928-16.324638 37.101449-16.324638 11.872464 0 22.26087 4.452174 29.68116 11.872464l31.165217 31.165217c17.808696 17.808696 14.84058 47.489855-4.452174 66.782609L682.666667 544.649275c-8.904348 10.388406-23.744928 16.324638-37.10145 16.324638z m56.394203-172.150725c-5.936232 0-11.872464 2.968116-16.324637 7.42029l-75.686957 75.686957c-7.42029 7.42029-10.388406 19.292754-4.452174 25.228985l31.165218 31.165218c5.936232 5.936232 17.808696 4.452174 25.228985-4.452174l75.686957-75.686957c7.42029-7.42029 10.388406-19.292754 4.452174-25.228985l-31.165218-31.165218c-2.968116-2.968116-5.936232-2.968116-8.904348-2.968116z" fill="#2A5082" p-id="2315"></path><path d="M669.310145 580.266667l31.165217 31.165217c11.872464 11.872464 31.165217 10.388406 44.521739-2.968116l57.878261-57.878261c13.356522-13.356522 13.356522-32.649275 2.968116-44.521739L773.194203 474.898551c-11.872464-11.872464-31.165217-10.388406-44.521739 2.968116l-57.878261 57.878261c-11.872464 13.356522-13.356522 32.649275-1.484058 44.521739z" fill="#FFFFFF" p-id="2316"></path><path d="M719.768116 635.176812c-11.872464 0-22.26087-4.452174-31.165217-11.872464l-31.165218-31.165218c-8.904348-8.904348-13.356522-20.776812-11.872464-32.649275 0-11.872464 5.936232-23.744928 14.84058-32.649275l57.878261-57.878261c8.904348-8.904348 20.776812-13.356522 32.649275-14.84058 13.356522 0 23.744928 4.452174 32.649276 11.872464l31.165217 31.165217c8.904348 8.904348 13.356522 20.776812 11.872464 32.649276 0 11.872464-5.936232 23.744928-14.84058 32.649275l-57.878261 57.878261c-8.904348 8.904348-20.776812 14.84058-34.133333 14.84058z m34.133333-152.857971c-5.936232 0-10.388406 2.968116-13.356521 5.936231L682.666667 546.133333c-2.968116 2.968116-5.936232 8.904348-5.936232 13.356522 0 4.452174 1.484058 7.42029 2.968116 10.388406l31.165217 31.165217c5.936232 5.936232 16.324638 4.452174 23.744928-2.968116l57.878261-57.878261c2.968116-2.968116 5.936232-8.904348 5.936231-13.356521 0-4.452174-1.484058-7.42029-4.452174-10.388406l-31.165217-31.165217c-1.484058-1.484058-4.452174-2.968116-8.904348-2.968116z" fill="#2A5082" p-id="2317"></path><path d="M474.898551 638.144928c59.362319-59.362319 32.649275-197.37971-14.84058-244.869566l66.782609 66.782609c47.489855 47.489855 118.724638 13.356522 130.597101-16.324638L506.063768 292.35942c-17.808696-17.808696-35.617391-29.681159-63.814493-25.228985-28.197101 4.452174-74.202899 29.681159-90.527536 41.553623-16.324638 11.872464-35.617391 65.298551-35.617391 111.304348 0 54.910145 2.968116 112.788406-7.42029 124.660869L207.768116 644.081159 439.281159 875.594203l74.202899-74.202899c23.744928-23.744928 81.623188-19.292754 115.756522-51.942029l50.457971-50.457971L474.898551 638.144928z" fill="#FFFFFF" p-id="2318"></path><path d="M437.797101 894.886957l-252.289855-252.289856 111.304348-111.304347c4.452174-7.42029 4.452174-50.457971 4.452174-81.623189v-32.649275c0-48.973913 19.292754-106.852174 41.553623-123.176812 17.808696-13.356522 65.298551-38.585507 96.463768-43.037681 37.101449-5.936232 59.362319 11.872464 77.171015 29.68116l157.310145 157.310144-2.968116 8.904348c-8.904348 22.26087-35.617391 41.553623-65.298551 47.489855-34.133333 7.42029-65.298551-1.484058-89.043478-25.228985l-1.484058-1.484058c16.324638 63.814493 11.872464 139.501449-29.681159 181.055072l-20.776812-20.776811c51.942029-51.942029 28.197101-181.055072-14.84058-224.092754l20.776812-20.776811 66.782609 66.782608c20.776812 20.776812 44.521739 20.776812 62.330434 17.808696 17.808696-4.452174 31.165217-13.356522 40.069566-22.26087l-142.469566-142.469565c-17.808696-17.808696-29.681159-25.228986-50.457971-22.260869-26.713043 4.452174-69.750725 26.713043-83.107246 38.585507-10.388406 7.42029-29.681159 53.426087-29.68116 99.431884v32.649275c1.484058 57.878261 0 89.043478-11.872463 102.4l-90.527537 90.527536 209.252174 209.252174 63.814493-63.814492c13.356522-13.356522 34.133333-19.292754 54.910145-25.228986 22.26087-5.936232 44.521739-11.872464 60.846377-28.197101l50.457971-50.457971 20.776811 20.776811-53.426086 51.942029c-20.776812 20.776812-48.973913 28.197101-72.718841 35.617391-17.808696 4.452174-34.133333 8.904348-41.553623 17.808696l-86.075363 83.107247z" fill="#2A5082" p-id="2319"></path><path d="M228.396522 579.673043l272.829217 272.844058-104.937739 104.922899L123.443942 684.625623z" fill="#E9EAEB" p-id="2320"></path><path d="M396.243478 979.478261L102.4 685.634783l126.144928-126.144928 293.843478 293.843478-126.144928 126.144928z m-252.289855-293.843478l252.289855 252.289855 84.591305-84.591305-252.289855-252.289855-84.591305 84.591305z" fill="#2A5082" p-id="2321"></path><path d="M207.545507 664.561159l20.98458-20.99942 41.969159 41.96916-20.984579 20.99942z" fill="#2A5082" p-id="2322"></path></svg>